<svg version="1.1" id="Layer_1" xmlns="http://www.w3.org/2000/svg" xmlns:xlink="http://www.w3.org/1999/xlink" x="0px" y="0px"
	 width="100%" viewBox="0 0 561 465" enable-background="new 0 0 561 465" xml:space="preserve">
<path fill="#FEFFFE" opacity="1.000000" stroke="none" 
	d="
M391.000000,466.000000 
	C260.698273,466.000000 130.896561,466.000000 1.047419,466.000000 
	C1.047419,311.069366 1.047419,156.138718 1.047419,1.104029 
	C187.885056,1.104029 374.770203,1.104029 561.827637,1.104029 
	C561.827637,155.999847 561.827637,310.999908 561.827637,466.000000 
	C505.138672,466.000000 448.319336,466.000000 391.000000,466.000000 
M102.445770,272.065887 
	C106.703522,276.388031 110.570213,281.203094 115.287697,284.945770 
	C134.269424,300.005249 156.929169,304.661316 180.290070,306.542389 
	C193.897842,307.638123 207.424561,306.456238 220.841766,303.300903 
	C236.342590,299.655579 250.355957,293.364471 262.390320,282.879059 
	C292.229980,256.880066 291.057007,207.299774 253.725967,186.362381 
	C234.874786,175.789566 214.225845,171.470200 193.472214,167.119049 
	C181.063004,164.517380 168.602203,161.987549 156.437180,158.479996 
	C151.462265,157.045578 145.414444,155.160629 144.872009,147.896545 
	C144.307144,140.332031 148.076370,135.341171 154.534698,132.797119 
	C160.900131,130.289658 167.664429,127.667320 174.354584,127.370804 
	C184.886642,126.903984 195.650482,127.468994 206.042770,129.219894 
	C216.543365,130.989029 225.111740,136.656448 227.970963,148.008423 
	C228.858353,151.531662 228.790375,155.313721 229.844040,158.768616 
	C230.314011,160.309723 232.453873,162.400131 233.872696,162.428955 
	C247.533646,162.706650 261.204010,162.687012 274.866241,162.444214 
	C276.069214,162.422821 278.261963,160.215027 278.258881,159.027237 
	C278.221954,144.728607 276.198029,130.899033 267.868439,118.667976 
	C252.238373,95.716988 228.927338,86.218040 202.819107,83.613785 
	C188.102417,82.145821 172.970245,83.750725 158.119186,85.047394 
	C144.818344,86.208717 132.709686,91.760841 121.780853,99.299194 
	C86.533226,123.611916 84.921165,174.704529 126.135735,196.190338 
	C146.289505,206.696869 168.542862,210.012848 190.342331,215.003189 
	C201.825638,217.631958 213.262299,220.890778 224.274170,225.046524 
	C238.592178,230.449966 235.965210,247.327301 226.856903,252.840073 
	C221.196503,256.265991 214.873123,259.471954 208.462433,260.611572 
	C192.008438,263.536621 175.422409,263.382294 159.584885,257.008820 
	C149.441452,252.926788 141.291519,246.358826 138.248962,235.270660 
	C136.820160,230.063583 136.249832,224.620956 135.285507,219.257477 
	C119.445084,219.257477 103.972061,219.257477 88.001015,219.257477 
	C87.373161,238.242996 90.374908,255.983765 102.445770,272.065887 
M247.222748,90.181183 
	C262.458862,98.518120 274.143799,110.115807 280.097260,126.728989 
	C281.266571,129.991974 282.835907,130.978729 286.199310,130.867844 
	C294.130127,130.606339 302.075409,130.783951 310.950684,130.783951 
	C310.950684,188.498291 310.950684,245.515396 310.950684,302.487030 
	C328.164215,302.487030 344.421051,302.487030 361.316437,302.487030 
	C361.316437,245.145645 361.316437,188.114990 361.316437,130.711639 
	C385.571899,130.711639 409.188171,130.711639 433.152283,130.711639 
	C433.152283,115.465607 433.152283,100.599342 433.152283,85.689163 
	C368.393433,85.689163 304.046448,85.689163 238.425858,85.689163 
	C241.926086,87.439964 244.261810,88.608276 247.222748,90.181183 
M70.053009,386.489624 
	C74.009705,387.666046 77.903786,389.489471 81.936562,389.879700 
	C89.547234,390.616211 96.657684,388.813690 101.377968,382.129089 
	C108.995682,371.341339 103.397751,359.213135 89.157928,355.288147 
	C84.515556,354.008575 79.739433,353.075867 75.269402,351.350128 
	C71.182236,349.772186 70.295090,345.302765 72.808128,341.857452 
	C77.032188,336.066406 91.650032,336.924164 94.040367,343.652679 
	C95.901070,348.890320 98.775261,348.522675 103.122734,347.761536 
	C102.853470,345.817444 102.845612,343.982697 102.325638,342.306824 
	C99.738266,333.967926 93.195786,330.742310 85.250114,330.028595 
	C77.622421,329.343445 70.611343,331.000092 65.880890,337.798309 
	C65.044830,338.999847 64.488182,340.465424 64.088135,341.889313 
	C61.634872,350.621185 65.834404,357.330261 75.908241,360.597198 
	C80.966850,362.237701 86.243126,363.268250 91.191528,365.171265 
	C96.932930,367.379242 98.340416,373.872589 94.424019,378.181946 
	C88.615921,384.572876 73.158867,382.287476 70.547615,374.108856 
	C68.869690,368.853424 65.944878,369.648926 61.996483,370.042175 
	C61.581173,376.939209 64.177559,382.108154 70.053009,386.489624 
M214.990784,352.560699 
	C210.305939,360.323822 209.873825,368.581818 212.486954,377.033478 
	C214.821609,384.584412 220.071884,388.891113 227.966873,389.947937 
	C237.963104,391.286041 246.472946,384.984863 246.498810,375.052338 
	C243.583115,375.931610 240.302231,375.990723 238.516464,377.654541 
	C234.878769,381.043915 230.515335,382.885681 226.098312,380.992218 
	C221.715668,379.113495 219.742264,375.544312 219.759460,370.137299 
	C229.033951,370.137299 238.084015,370.137299 246.995010,370.137299 
	C248.959106,359.742462 244.893753,350.366150 237.198288,346.636475 
	C229.568100,342.938507 221.490189,344.896240 214.990784,352.560699 
M204.104874,370.498657 
	C204.104874,357.085205 204.104874,343.671722 204.104874,330.127472 
	C201.350327,330.127472 199.260162,330.127472 196.530243,330.127472 
	C196.530243,335.913605 196.530243,341.457397 196.530243,347.318726 
	C195.223007,347.008911 194.569992,346.935455 193.980118,346.702271 
	C184.022339,342.765717 175.551117,345.759216 172.453827,355.914764 
	C170.549103,362.160126 170.414444,369.350494 171.180923,375.918610 
	C172.647354,388.484894 185.303909,394.405182 194.636246,386.935089 
	C198.116486,387.414825 200.817566,387.787170 204.104950,388.240326 
	C204.104950,382.078339 204.104950,376.788147 204.104874,370.498657 
M394.321716,348.784821 
	C386.614258,356.610138 384.717773,369.887146 389.792938,380.260315 
	C393.070129,386.958618 398.653625,390.101562 405.858307,390.005554 
	C413.100677,389.909088 419.180389,386.711182 421.302399,379.608002 
	C422.962921,374.049683 423.787354,367.843353 423.226196,362.096527 
	C421.721680,346.688416 408.100739,340.344086 394.321716,348.784821 
M452.306335,346.099304 
	C439.966400,342.509155 430.359589,347.650269 428.208649,360.231018 
	C427.190277,366.187317 427.860107,372.832947 429.419525,378.728638 
	C431.403015,386.227295 438.272095,390.225433 445.768555,390.092377 
	C453.430695,389.956390 459.442719,385.785126 462.052246,378.414032 
	C464.505768,371.483582 464.549866,364.374695 462.407562,357.364929 
	C460.896698,352.421356 457.929382,348.515930 452.306335,346.099304 
M369.368835,338.186066 
	C373.984894,338.186066 378.600922,338.186066 383.470642,338.186066 
	C383.470642,335.167084 383.470642,332.772247 383.470642,330.203979 
	C369.253937,330.203979 355.390289,330.203979 341.470886,330.203979 
	C341.470886,332.979980 341.470886,335.373505 341.470886,338.190430 
	C347.105408,338.190430 352.387268,338.190430 358.392395,338.190430 
	C358.392395,354.961945 358.392395,371.319092 358.392395,387.840454 
	C361.374237,387.840454 363.620209,387.840454 366.488281,387.840454 
	C366.488281,385.962708 366.488129,384.350342 366.488312,382.737976 
	C366.489777,369.585052 366.425354,356.431335 366.574646,343.280090 
	C366.593719,341.598358 367.726135,339.929291 369.368835,338.186066 
M256.635742,387.976990 
	C258.069702,387.885712 259.503662,387.794434 261.325287,387.678497 
	C261.325287,379.328522 261.313568,371.359497 261.329590,363.390533 
	C261.339600,358.412018 264.369324,354.537964 269.129639,353.348969 
	C273.700867,352.207214 276.710449,354.091095 277.148285,358.815094 
	C277.546478,363.111664 277.512878,367.452942 277.564331,371.775787 
	C277.626892,377.033752 277.579163,382.293091 277.579163,387.577667 
	C280.565033,387.577667 282.770142,387.577667 285.117493,387.577667 
	C285.117493,376.881836 285.612885,366.552643 284.973083,356.294220 
	C284.376740,346.732849 274.695984,342.026093 266.108551,346.451904 
	C264.814148,347.119019 263.566132,347.876221 262.296631,348.591736 
	C262.345306,348.087402 262.393982,347.583099 262.442688,347.078766 
	C259.755341,346.578217 257.067963,346.077637 253.586670,345.429199 
	C253.586670,359.586304 253.551559,372.689941 253.680298,385.792023 
	C253.687469,386.520386 255.050171,387.235443 256.635742,387.976990 
M164.118393,350.763123 
	C164.118393,349.297119 164.118393,347.831146 164.118393,346.446747 
	C156.447098,345.155914 156.413147,345.181396 156.411987,351.888184 
	C156.410767,358.884491 156.490982,365.882080 156.381943,372.876709 
	C156.309830,377.502411 151.622360,381.676453 146.722031,381.737366 
	C142.456085,381.790344 140.386063,379.262177 140.109299,373.586060 
	C140.036362,372.090179 140.084595,370.588226 140.084305,369.089050 
	C140.082779,361.481140 140.083603,353.873230 140.083603,346.141541 
	C137.206360,346.141541 134.949875,346.141541 132.981857,346.141541 
	C132.981857,357.699768 132.434479,368.991699 133.181305,380.197388 
	C133.650726,387.240997 140.548996,391.323822 147.524521,389.761444 
	C150.367584,389.124634 152.995392,387.526611 154.550339,386.864471 
	C158.118240,387.461639 160.817917,387.913513 164.117401,388.465759 
	C164.117401,375.626770 164.117401,363.663086 164.118393,350.763123 
M113.574272,381.707092 
	C115.208519,389.709076 119.803192,391.957611 127.757301,388.742493 
	C127.757301,386.441742 127.757301,384.188507 127.757301,381.586639 
	C124.209404,382.037262 121.205261,381.693665 121.165016,377.472046 
	C121.092529,369.867157 121.144531,362.261078 121.144531,354.437683 
	C123.248734,354.228119 125.003876,354.053345 126.785126,353.875946 
	C126.785126,351.059723 126.785126,348.536011 126.785126,346.070770 
	C124.705917,345.852905 123.082069,345.682770 121.228737,345.488586 
	C121.156723,343.845184 121.098579,342.386230 121.027328,340.927917 
	C120.949387,339.332825 120.859322,337.738281 120.778297,336.214233 
	C114.107048,335.568451 114.107048,335.568451 112.955772,345.116302 
	C109.335228,346.284912 107.390999,350.948212 109.494553,353.742310 
	C110.610466,354.044922 111.837799,354.377747 113.470253,354.820435 
	C113.470253,363.570068 113.470253,372.209686 113.574272,381.707092 
M295.474457,369.482361 
	C295.507263,372.974243 295.406219,376.473541 295.598969,379.956573 
	C296.101501,389.037201 300.895538,391.970947 309.861572,388.747986 
	C309.861572,386.515472 309.861572,384.265503 309.861572,382.015503 
	C309.531219,382.276947 309.200867,382.538391 308.870514,382.799835 
	C307.044617,381.369568 303.742706,380.037109 303.640381,378.492676 
	C303.108765,370.468323 303.392853,362.389923 303.392853,354.306213 
	C305.555450,354.077087 307.180603,353.904877 309.007446,353.711304 
	C309.007446,351.155029 309.007446,348.755554 309.007446,346.310822 
	C306.949310,346.012756 305.207764,345.760559 303.021423,345.443909 
	C303.021423,342.260376 303.021423,339.344208 303.021423,336.513519 
	C295.632507,335.416229 295.866089,335.435516 295.351898,341.661652 
	C295.187500,343.652466 293.426208,345.511414 292.395569,347.430725 
	C291.717407,347.335785 291.039276,347.240845 290.361145,347.145905 
	C291.123505,349.411530 291.730957,351.746368 292.701996,353.918732 
	C293.364594,355.401062 295.181549,356.581543 295.349182,358.028259 
	C295.748505,361.474091 295.475739,364.997833 295.474457,369.482361 
M470.703125,365.499573 
	C470.703125,372.914398 470.703125,380.329224 470.703125,387.789459 
	C473.677124,387.789459 475.904633,387.789459 478.185303,387.789459 
	C478.185303,368.303558 478.185303,349.165588 478.185303,330.236603 
	C475.498108,330.236603 473.275452,330.236603 471.201630,330.236603 
	C470.958588,330.981018 470.768311,331.293213 470.767395,331.605988 
	C470.735077,342.570496 470.720551,353.535034 470.703125,365.499573 
z"/>
<path fill="#FECE03" opacity="1.000000" stroke="none" 
	d="
M102.268936,271.756622 
	C90.374908,255.983765 87.373161,238.242996 88.001015,219.257477 
	C103.972061,219.257477 119.445084,219.257477 135.285507,219.257477 
	C136.249832,224.620956 136.820160,230.063583 138.248962,235.270660 
	C141.291519,246.358826 149.441452,252.926788 159.584885,257.008820 
	C175.422409,263.382294 192.008438,263.536621 208.462433,260.611572 
	C214.873123,259.471954 221.196503,256.265991 226.856903,252.840073 
	C235.965210,247.327301 238.592178,230.449966 224.274170,225.046524 
	C213.262299,220.890778 201.825638,217.631958 190.342331,215.003189 
	C168.542862,210.012848 146.289505,206.696869 126.135735,196.190338 
	C84.921165,174.704529 86.533226,123.611916 121.780853,99.299194 
	C132.709686,91.760841 144.818344,86.208717 158.119186,85.047394 
	C172.970245,83.750725 188.102417,82.145821 202.819107,83.613785 
	C228.927338,86.218040 252.238373,95.716988 267.868439,118.667976 
	C276.198029,130.899033 278.221954,144.728607 278.258881,159.027237 
	C278.261963,160.215027 276.069214,162.422821 274.866241,162.444214 
	C261.204010,162.687012 247.533646,162.706650 233.872696,162.428955 
	C232.453873,162.400131 230.314011,160.309723 229.844040,158.768616 
	C228.790375,155.313721 228.858353,151.531662 227.970963,148.008423 
	C225.111740,136.656448 216.543365,130.989029 206.042770,129.219894 
	C195.650482,127.468994 184.886642,126.903984 174.354584,127.370804 
	C167.664429,127.667320 160.900131,130.289658 154.534698,132.797119 
	C148.076370,135.341171 144.307144,140.332031 144.872009,147.896545 
	C145.414444,155.160629 151.462265,157.045578 156.437180,158.479996 
	C168.602203,161.987549 181.063004,164.517380 193.472214,167.119049 
	C214.225845,171.470200 234.874786,175.789566 253.725967,186.362381 
	C291.057007,207.299774 292.229980,256.880066 262.390320,282.879059 
	C250.355957,293.364471 236.342590,299.655579 220.841766,303.300903 
	C207.424561,306.456238 193.897842,307.638123 180.290070,306.542389 
	C156.929169,304.661316 134.269424,300.005249 115.287697,284.945770 
	C110.570213,281.203094 106.703522,276.388031 102.268936,271.756622 
z"/>
<path fill="#1D99FE" opacity="1.000000" stroke="none" 
	d="
M246.910141,89.978889 
	C244.261810,88.608276 241.926086,87.439964 238.425858,85.689163 
	C304.046448,85.689163 368.393433,85.689163 433.152283,85.689163 
	C433.152283,100.599342 433.152283,115.465607 433.152283,130.711639 
	C409.188171,130.711639 385.571899,130.711639 361.316437,130.711639 
	C361.316437,188.114990 361.316437,245.145645 361.316437,302.487030 
	C344.421051,302.487030 328.164215,302.487030 310.950684,302.487030 
	C310.950684,245.515396 310.950684,188.498291 310.950684,130.783951 
	C302.075409,130.783951 294.130127,130.606339 286.199310,130.867844 
	C282.835907,130.978729 281.266571,129.991974 280.097260,126.728989 
	C274.143799,110.115807 262.458862,98.518120 246.910141,89.978889 
z"/>
<path fill="#108B35" opacity="1.000000" stroke="none" 
	d="
M69.760757,386.275848 
	C64.177559,382.108154 61.581173,376.939209 61.996483,370.042175 
	C65.944878,369.648926 68.869690,368.853424 70.547615,374.108856 
	C73.158867,382.287476 88.615921,384.572876 94.424019,378.181946 
	C98.340416,373.872589 96.932930,367.379242 91.191528,365.171265 
	C86.243126,363.268250 80.966850,362.237701 75.908241,360.597198 
	C65.834404,357.330261 61.634872,350.621185 64.088135,341.889313 
	C64.488182,340.465424 65.044830,338.999847 65.880890,337.798309 
	C70.611343,331.000092 77.622421,329.343445 85.250114,330.028595 
	C93.195786,330.742310 99.738266,333.967926 102.325638,342.306824 
	C102.845612,343.982697 102.853470,345.817444 103.122734,347.761536 
	C98.775261,348.522675 95.901070,348.890320 94.040367,343.652679 
	C91.650032,336.924164 77.032188,336.066406 72.808128,341.857452 
	C70.295090,345.302765 71.182236,349.772186 75.269402,351.350128 
	C79.739433,353.075867 84.515556,354.008575 89.157928,355.288147 
	C103.397751,359.213135 108.995682,371.341339 101.377968,382.129089 
	C96.657684,388.813690 89.547234,390.616211 81.936562,389.879700 
	C77.903786,389.489471 74.009705,387.666046 69.760757,386.275848 
z"/>
<path fill="#118C36" opacity="1.000000" stroke="none" 
	d="
M215.173889,352.245239 
	C221.490189,344.896240 229.568100,342.938507 237.198288,346.636475 
	C244.893753,350.366150 248.959106,359.742462 246.995010,370.137299 
	C238.084015,370.137299 229.033951,370.137299 219.759460,370.137299 
	C219.742264,375.544312 221.715668,379.113495 226.098312,380.992218 
	C230.515335,382.885681 234.878769,381.043915 238.516464,377.654541 
	C240.302231,375.990723 243.583115,375.931610 246.498810,375.052338 
	C246.472946,384.984863 237.963104,391.286041 227.966873,389.947937 
	C220.071884,388.891113 214.821609,384.584412 212.486954,377.033478 
	C209.873825,368.581818 210.305939,360.323822 215.173889,352.245239 
M224.753067,361.954346 
	C229.446289,361.954346 234.139511,361.954346 239.004639,361.954346 
	C237.403259,355.511688 234.055725,352.761078 228.883957,352.993073 
	C223.955688,353.214142 221.056900,355.931366 220.093353,361.546600 
	C221.340103,361.681274 222.587631,361.816010 224.753067,361.954346 
z"/>
<path fill="#0D8932" opacity="1.000000" stroke="none" 
	d="
M204.104919,370.998291 
	C204.104950,376.788147 204.104950,382.078339 204.104950,388.240326 
	C200.817566,387.787170 198.116486,387.414825 194.636246,386.935089 
	C185.303909,394.405182 172.647354,388.484894 171.180923,375.918610 
	C170.414444,369.350494 170.549103,362.160126 172.453827,355.914764 
	C175.551117,345.759216 184.022339,342.765717 193.980118,346.702271 
	C194.569992,346.935455 195.223007,347.008911 196.530243,347.318726 
	C196.530243,341.457397 196.530243,335.913605 196.530243,330.127472 
	C199.260162,330.127472 201.350327,330.127472 204.104874,330.127472 
	C204.104874,343.671722 204.104874,357.085205 204.104919,370.998291 
M196.583878,366.497192 
	C196.583862,364.997192 196.590775,363.497192 196.582565,361.997223 
	C196.553421,356.675171 194.479355,354.203369 189.166443,353.227844 
	C184.537643,352.377930 180.604553,354.156769 179.863876,358.597595 
	C178.907104,364.333954 178.496307,370.497925 179.580078,376.145844 
	C180.722046,382.097046 187.260101,383.367981 192.403946,379.935699 
	C197.203003,376.733521 196.685654,372.088379 196.583878,366.497192 
z"/>
<path fill="#108C35" opacity="1.000000" stroke="none" 
	d="
M394.600983,348.557098 
	C408.100739,340.344086 421.721680,346.688416 423.226196,362.096527 
	C423.787354,367.843353 422.962921,374.049683 421.302399,379.608002 
	C419.180389,386.711182 413.100677,389.909088 405.858307,390.005554 
	C398.653625,390.101562 393.070129,386.958618 389.792938,380.260315 
	C384.717773,369.887146 386.614258,356.610138 394.600983,348.557098 
M396.626953,359.426331 
	C396.530212,364.462036 395.805298,369.588684 396.517303,374.507294 
	C397.199341,379.218689 400.879303,381.843933 405.853760,381.824921 
	C410.368835,381.807648 414.139618,378.604370 414.946991,373.454041 
	C415.527832,369.748993 415.540894,365.845367 415.090759,362.116821 
	C414.563629,357.750549 412.274506,354.194794 407.551636,353.283722 
	C402.734283,352.354431 399.115417,354.218719 396.626953,359.426331 
z"/>
<path fill="#108C35" opacity="1.000000" stroke="none" 
	d="
M452.648071,346.257416 
	C457.929382,348.515930 460.896698,352.421356 462.407562,357.364929 
	C464.549866,364.374695 464.505768,371.483582 462.052246,378.414032 
	C459.442719,385.785126 453.430695,389.956390 445.768555,390.092377 
	C438.272095,390.225433 431.403015,386.227295 429.419525,378.728638 
	C427.860107,372.832947 427.190277,366.187317 428.208649,360.231018 
	C430.359589,347.650269 439.966400,342.509155 452.648071,346.257416 
M438.192444,378.209991 
	C444.303955,384.039886 452.218964,382.884094 454.242584,375.166901 
	C455.521881,370.288361 455.121490,364.697479 454.287537,359.621094 
	C453.595886,355.410858 450.035797,352.989624 445.448853,353.056580 
	C440.897003,353.123016 437.980957,355.609497 436.544769,359.759766 
	C434.443756,365.831268 434.560333,371.819122 438.192444,378.209991 
z"/>
<path fill="#158C39" opacity="1.000000" stroke="none" 
	d="
M368.855804,338.220215 
	C367.726135,339.929291 366.593719,341.598358 366.574646,343.280090 
	C366.425354,356.431335 366.489777,369.585052 366.488312,382.737976 
	C366.488129,384.350342 366.488281,385.962708 366.488281,387.840454 
	C363.620209,387.840454 361.374237,387.840454 358.392395,387.840454 
	C358.392395,371.319092 358.392395,354.961945 358.392395,338.190430 
	C352.387268,338.190430 347.105408,338.190430 341.470886,338.190430 
	C341.470886,335.373505 341.470886,332.979980 341.470886,330.203979 
	C355.390289,330.203979 369.253937,330.203979 383.470642,330.203979 
	C383.470642,332.772247 383.470642,335.167084 383.470642,338.186066 
	C378.600922,338.186066 373.984894,338.186066 368.855804,338.220215 
z"/>
<path fill="#0D8B33" opacity="1.000000" stroke="none" 
	d="
M256.208832,387.966827 
	C255.050171,387.235443 253.687469,386.520386 253.680298,385.792023 
	C253.551559,372.689941 253.586670,359.586304 253.586670,345.429199 
	C257.067963,346.077637 259.755341,346.578217 262.442688,347.078766 
	C262.393982,347.583099 262.345306,348.087402 262.296631,348.591736 
	C263.566132,347.876221 264.814148,347.119019 266.108551,346.451904 
	C274.695984,342.026093 284.376740,346.732849 284.973083,356.294220 
	C285.612885,366.552643 285.117493,376.881836 285.117493,387.577667 
	C282.770142,387.577667 280.565033,387.577667 277.579163,387.577667 
	C277.579163,382.293091 277.626892,377.033752 277.564331,371.775787 
	C277.512878,367.452942 277.546478,363.111664 277.148285,358.815094 
	C276.710449,354.091095 273.700867,352.207214 269.129639,353.348969 
	C264.369324,354.537964 261.339600,358.412018 261.329590,363.390533 
	C261.313568,371.359497 261.325287,379.328522 261.325287,387.678497 
	C259.503662,387.794434 258.069702,387.885712 256.208832,387.966827 
z"/>
<path fill="#128A36" opacity="1.000000" stroke="none" 
	d="
M164.117889,351.231262 
	C164.117401,363.663086 164.117401,375.626770 164.117401,388.465759 
	C160.817917,387.913513 158.118240,387.461639 154.550339,386.864471 
	C152.995392,387.526611 150.367584,389.124634 147.524521,389.761444 
	C140.548996,391.323822 133.650726,387.240997 133.181305,380.197388 
	C132.434479,368.991699 132.981857,357.699768 132.981857,346.141541 
	C134.949875,346.141541 137.206360,346.141541 140.083603,346.141541 
	C140.083603,353.873230 140.082779,361.481140 140.084305,369.089050 
	C140.084595,370.588226 140.036362,372.090179 140.109299,373.586060 
	C140.386063,379.262177 142.456085,381.790344 146.722031,381.737366 
	C151.622360,381.676453 156.309830,377.502411 156.381943,372.876709 
	C156.490982,365.882080 156.410767,358.884491 156.411987,351.888184 
	C156.413147,345.181396 156.447098,345.155914 164.118393,346.446747 
	C164.118393,347.831146 164.118393,349.297119 164.117889,351.231262 
z"/>
<path fill="#118C36" opacity="1.000000" stroke="none" 
	d="
M113.522263,381.278198 
	C113.470253,372.209686 113.470253,363.570068 113.470253,354.820435 
	C111.837799,354.377747 110.610466,354.044922 109.494553,353.742310 
	C107.390999,350.948212 109.335228,346.284912 112.955772,345.116302 
	C114.107048,335.568451 114.107048,335.568451 120.778297,336.214233 
	C120.859322,337.738281 120.949387,339.332825 121.027328,340.927917 
	C121.098579,342.386230 121.156723,343.845184 121.228737,345.488586 
	C123.082069,345.682770 124.705917,345.852905 126.785126,346.070770 
	C126.785126,348.536011 126.785126,351.059723 126.785126,353.875946 
	C125.003876,354.053345 123.248734,354.228119 121.144531,354.437683 
	C121.144531,362.261078 121.092529,369.867157 121.165016,377.472046 
	C121.205261,381.693665 124.209404,382.037262 127.757301,381.586639 
	C127.757301,384.188507 127.757301,386.441742 127.757301,388.742493 
	C119.803192,391.957611 115.208519,389.709076 113.522263,381.278198 
z"/>
<path fill="#0C8931" opacity="1.000000" stroke="none" 
	d="
M295.474487,368.986206 
	C295.475739,364.997833 295.748505,361.474091 295.349182,358.028259 
	C295.181549,356.581543 293.364594,355.401062 292.701996,353.918732 
	C291.730957,351.746368 291.123505,349.411530 290.361145,347.145905 
	C291.039276,347.240845 291.717407,347.335785 292.395569,347.430725 
	C293.426208,345.511414 295.187500,343.652466 295.351898,341.661652 
	C295.866089,335.435516 295.632507,335.416229 303.021423,336.513519 
	C303.021423,339.344208 303.021423,342.260376 303.021423,345.443909 
	C305.207764,345.760559 306.949310,346.012756 309.007446,346.310822 
	C309.007446,348.755554 309.007446,351.155029 309.007446,353.711304 
	C307.180603,353.904877 305.555450,354.077087 303.392853,354.306213 
	C303.392853,362.389923 303.108765,370.468323 303.640381,378.492676 
	C303.742706,380.037109 307.044617,381.369568 308.870514,382.799835 
	C309.200867,382.538391 309.531219,382.276947 309.861572,382.015503 
	C309.861572,384.265503 309.861572,386.515472 309.861572,388.747986 
	C300.895538,391.970947 296.101501,389.037201 295.598969,379.956573 
	C295.406219,376.473541 295.507263,372.974243 295.474487,368.986206 
z"/>
<path fill="#19923D" opacity="1.000000" stroke="none" 
	d="
M470.703308,364.999573 
	C470.720551,353.535034 470.735077,342.570496 470.767395,331.605988 
	C470.768311,331.293213 470.958588,330.981018 471.201630,330.236603 
	C473.275452,330.236603 475.498108,330.236603 478.185303,330.236603 
	C478.185303,349.165588 478.185303,368.303558 478.185303,387.789459 
	C475.904633,387.789459 473.677124,387.789459 470.703125,387.789459 
	C470.703125,380.329224 470.703125,372.914398 470.703308,364.999573 
z"/>
<path fill="#E7F7EC" opacity="1.000000" stroke="none" 
	d="
M224.294128,361.952576 
	C222.587631,361.816010 221.340103,361.681274 220.093353,361.546600 
	C221.056900,355.931366 223.955688,353.214142 228.883957,352.993073 
	C234.055725,352.761078 237.403259,355.511688 239.004639,361.954346 
	C234.139511,361.954346 229.446289,361.954346 224.294128,361.952576 
z"/>
<path fill="#F3FAF5" opacity="1.000000" stroke="none" 
	d="
M196.583893,366.961975 
	C196.685654,372.088379 197.203003,376.733521 192.403946,379.935699 
	C187.260101,383.367981 180.722046,382.097046 179.580078,376.145844 
	C178.496307,370.497925 178.907104,364.333954 179.863876,358.597595 
	C180.604553,354.156769 184.537643,352.377930 189.166443,353.227844 
	C194.479355,354.203369 196.553421,356.675171 196.582565,361.997223 
	C196.590775,363.497192 196.583862,364.997192 196.583893,366.961975 
z"/>
<path fill="#F5FBF6" opacity="1.000000" stroke="none" 
	d="
M396.803375,359.078064 
	C399.115417,354.218719 402.734283,352.354431 407.551636,353.283722 
	C412.274506,354.194794 414.563629,357.750549 415.090759,362.116821 
	C415.540894,365.845367 415.527832,369.748993 414.946991,373.454041 
	C414.139618,378.604370 410.368835,381.807648 405.853760,381.824921 
	C400.879303,381.843933 397.199341,379.218689 396.517303,374.507294 
	C395.805298,369.588684 396.530212,364.462036 396.803375,359.078064 
z"/>
<path fill="#F4FAF6" opacity="1.000000" stroke="none" 
	d="
M437.993347,377.880707 
	C434.560333,371.819122 434.443756,365.831268 436.544769,359.759766 
	C437.980957,355.609497 440.897003,353.123016 445.448853,353.056580 
	C450.035797,352.989624 453.595886,355.410858 454.287537,359.621094 
	C455.121490,364.697479 455.521881,370.288361 454.242584,375.166901 
	C452.218964,382.884094 444.303955,384.039886 437.993347,377.880707 
z"/>
</svg>