<svg version="1.1" id="Layer_1" xmlns="http://www.w3.org/2000/svg" xmlns:xlink="http://www.w3.org/1999/xlink" x="0px" y="0px"
	 width="100%" viewBox="0 0 561 465" enable-background="new 0 0 561 465" xml:space="preserve">
<path fill="#FEFFFE" opacity="1.000000" stroke="none" 
	d="
M390.000000,466.000000 
	C260.031525,466.000000 130.563065,466.000000 1.047297,466.000000 
	C1.047297,311.069275 1.047297,156.138550 1.047297,1.103907 
	C187.885147,1.103907 374.770355,1.103907 561.827759,1.103907 
	C561.827759,155.999847 561.827759,310.999908 561.827759,466.000000 
	C504.805176,466.000000 447.652588,466.000000 390.000000,466.000000 
M177.226440,306.027130 
	C187.359055,305.918396 197.580856,306.628296 207.606354,305.536224 
	C230.897049,302.999237 251.929291,294.976593 268.144958,277.106140 
	C289.176025,253.928848 289.271301,214.694336 263.707550,193.358124 
	C252.854706,184.300034 240.243332,178.588516 226.812302,175.126450 
	C209.099976,170.560837 191.051651,167.313416 173.267227,163.006104 
	C165.403183,161.101456 157.749252,158.205292 150.162781,155.329636 
	C146.218582,153.834564 144.739700,150.404053 144.879730,146.041367 
	C145.153046,137.525482 150.941681,133.531357 157.674698,131.175720 
	C175.174301,125.053238 192.962692,125.022171 210.656647,130.587189 
	C222.334808,134.260178 228.195847,142.611557 229.146759,154.643250 
	C229.251587,155.969421 229.062500,157.569977 229.734512,158.542358 
	C230.790207,160.069870 232.440155,162.254471 233.877579,162.284424 
	C247.538071,162.569229 261.208527,162.550491 274.870270,162.300018 
	C276.083221,162.277756 278.336456,159.941406 278.269012,158.787186 
	C277.852661,151.660553 277.671783,144.379471 275.999023,137.493134 
	C270.832245,116.222885 256.836090,102.125938 237.503845,93.038040 
	C213.608215,81.804932 188.313919,80.616798 162.665649,83.940323 
	C146.937180,85.978432 132.328583,91.416176 119.438385,100.991997 
	C98.274757,116.713951 90.057014,142.979980 98.966835,167.169296 
	C104.792969,182.986710 117.163712,192.222702 131.818771,198.905396 
	C150.477676,207.413864 170.622589,210.521744 190.417404,215.016647 
	C202.196243,217.691315 214.001694,220.984863 225.121323,225.617615 
	C236.047287,230.169724 237.433487,242.978424 228.729889,251.134338 
	C226.003281,253.689392 222.595322,255.832397 219.122345,257.222168 
	C202.777802,263.762634 185.892197,263.608704 169.032532,259.857880 
	C163.438644,258.613373 157.842911,256.341583 152.898788,253.433151 
	C143.348465,247.815125 137.551163,239.403137 136.750275,227.947861 
	C136.126266,219.022507 136.005402,219.033905 126.858521,219.037384 
	C117.191963,219.041061 107.525398,219.038391 97.858841,219.038422 
	C87.789848,219.038437 87.704453,219.041306 88.046272,229.082901 
	C88.937332,255.260101 99.884735,275.880249 122.271049,289.926392 
	C138.759369,300.271881 157.124573,304.569275 177.226440,306.027130 
M257.501099,85.325844 
	C251.598801,85.325844 245.696518,85.325844 239.794220,85.325844 
	C241.411041,87.185425 243.162796,88.016655 244.882950,88.908783 
	C260.286987,96.897842 272.695343,107.946266 279.097717,124.423203 
	C281.064728,129.485474 283.521088,131.239929 288.823181,130.875443 
	C295.875793,130.390594 302.986877,130.755768 310.879181,130.755768 
	C310.879181,188.549210 310.879181,245.435730 310.879181,302.391357 
	C328.085114,302.391357 344.444305,302.391357 361.316223,302.391357 
	C361.316223,245.045593 361.316223,188.141418 361.316223,130.754105 
	C363.628693,130.754105 365.431274,130.754181 367.233856,130.754105 
	C387.392914,130.753128 407.554260,130.588303 427.709442,130.867706 
	C432.670135,130.936493 433.867371,129.332230 433.730988,124.642998 
	C433.411377,113.656433 433.379852,102.646118 433.740112,91.662094 
	C433.902679,86.705482 432.664673,85.178635 427.436615,85.197708 
	C371.125244,85.403145 314.812866,85.326180 257.501099,85.325844 
M66.303078,369.807343 
	C64.888474,369.904877 63.473862,370.002411 61.669273,370.126862 
	C61.981167,372.398682 62.027153,374.235138 62.502342,375.952850 
	C65.734406,387.635834 80.694252,393.641144 93.365021,388.404724 
	C100.410812,385.492889 104.503357,379.521606 104.496277,372.163300 
	C104.489098,364.703247 100.986465,359.731415 93.286217,356.785217 
	C90.196236,355.602997 86.901260,354.961945 83.711761,354.032806 
	C80.842987,353.197144 77.848221,352.611267 75.164993,351.364349 
	C71.199730,349.521667 70.347549,345.118256 72.935509,341.725006 
	C77.324425,335.970428 91.698753,337.069305 94.119110,343.843658 
	C96.001030,349.110931 99.019463,348.355255 102.741951,347.795319 
	C103.311134,338.277893 97.227325,331.773254 86.600433,330.188721 
	C75.364075,328.513367 65.923721,333.605164 63.957821,342.487457 
	C63.603874,344.086639 63.451126,345.790070 63.560402,347.421600 
	C63.993153,353.882690 67.908768,357.712402 73.666740,359.715332 
	C79.469208,361.733795 85.537170,363.031403 91.245529,365.266266 
	C97.163200,367.583038 98.334198,374.446289 93.950966,378.607513 
	C87.309250,384.912872 73.252434,381.617035 69.925812,373.083527 
	C69.429832,371.811249 68.022667,370.894165 66.303078,369.807343 
M247.676666,364.676636 
	C247.450424,363.026978 247.320969,361.357178 246.981873,359.731049 
	C245.112289,350.765869 238.720947,345.205231 230.001755,344.890076 
	C221.636703,344.587708 214.322266,349.554718 212.482910,358.256561 
	C211.315033,363.781677 211.084610,369.921997 212.202728,375.427124 
	C214.583389,387.148834 225.393494,392.703308 236.752823,389.001831 
	C242.915543,386.993683 246.399002,382.454407 246.560944,375.124115 
	C243.643097,375.959900 239.956909,375.885864 238.586548,377.630707 
	C235.159470,381.994171 231.103256,382.453644 226.607285,381.071869 
	C221.754318,379.580414 219.860245,375.673737 219.722824,370.001831 
	C227.755127,370.001831 235.523819,369.845367 243.281265,370.072510 
	C246.785660,370.175110 248.285919,369.061981 247.676666,364.676636 
M201.594101,387.977722 
	C202.432983,386.565216 203.987061,385.160004 204.001572,383.739105 
	C204.171127,367.118439 204.118759,350.495453 204.089218,333.873138 
	C204.087006,332.626160 203.810944,331.379669 203.672531,330.219757 
	C196.453400,329.690247 196.453384,329.690247 196.453293,336.553192 
	C196.453247,340.004578 196.453278,343.455933 196.453278,347.294830 
	C195.065964,346.889679 194.283356,346.717285 193.542007,346.436127 
	C184.100021,342.855286 176.287369,346.056183 172.381363,355.368530 
	C169.239731,362.858490 169.164169,370.625641 171.561737,378.297913 
	C175.196060,389.927765 185.360046,393.236603 194.996933,386.566254 
	C197.154831,387.100311 198.941315,387.542450 201.594101,387.977722 
M463.026672,375.442535 
	C463.052856,370.147980 463.725189,364.757874 462.959717,359.580353 
	C461.687592,350.976227 455.215240,345.506958 446.974884,344.904785 
	C438.389404,344.277344 431.097351,348.765015 428.896179,357.443268 
	C427.546570,362.764160 427.230133,368.701599 428.020508,374.133636 
	C429.466736,384.073334 435.675598,389.448303 444.508911,390.033386 
	C453.271942,390.613800 459.468048,385.936066 463.026672,375.442535 
M389.934723,380.478027 
	C393.622314,387.745789 399.743896,390.597198 407.597534,389.864288 
	C415.711121,389.107147 421.023651,384.321198 422.442566,376.613708 
	C423.527161,370.722198 423.655609,364.330688 422.606964,358.447174 
	C421.076263,349.858856 414.232941,345.000580 405.848175,344.879547 
	C397.495056,344.758972 390.958588,349.529938 388.476074,357.876587 
	C386.276398,365.272095 386.485229,372.634399 389.934723,380.478027 
M358.251190,383.133240 
	C358.476318,388.630920 359.109650,388.979034 366.505066,387.300568 
	C366.505066,385.779694 366.504913,384.148102 366.505066,382.516479 
	C366.506287,369.530792 366.699799,356.540710 366.404236,343.561768 
	C366.301178,339.035675 367.802368,337.635559 372.103180,338.088776 
	C375.066620,338.401031 378.167572,338.528717 381.048553,337.949860 
	C382.195496,337.719391 383.632660,335.358765 383.626617,333.973602 
	C383.620636,332.598450 381.989960,330.055817 381.031464,330.036591 
	C367.914032,329.773529 354.789642,329.859314 341.387939,329.859314 
	C341.387939,332.773041 341.387939,335.193481 341.387939,338.232025 
	C347.016815,338.232025 352.406250,338.232025 358.250702,338.232025 
	C358.250702,353.300812 358.250702,367.755859 358.251190,383.133240 
M253.598724,385.840790 
	C255.823883,386.801941 258.049042,387.763092 261.353394,389.190430 
	C261.353394,379.105957 261.300934,370.656494 261.374359,362.208130 
	C261.414215,357.620972 265.995300,353.325684 270.849762,353.110474 
	C275.219940,352.916687 277.079559,355.039307 277.443970,361.098419 
	C277.663605,364.750305 277.555573,368.422821 277.566406,372.086151 
	C277.581573,377.212341 277.570251,382.338593 277.570251,387.680664 
	C280.400421,387.680664 282.641235,387.680664 285.108673,387.680664 
	C285.108673,376.917114 285.619690,366.423126 284.954071,356.004303 
	C284.376221,346.959625 275.123505,342.315765 266.710938,346.099213 
	C265.210052,346.774231 263.816895,347.688751 262.373993,348.492676 
	C262.420837,348.032654 262.467651,347.572632 262.514496,347.112610 
	C259.765869,346.635498 257.017242,346.158356 253.578232,345.561401 
	C253.578232,359.374451 253.578232,372.167603 253.598724,385.840790 
M160.672318,388.075958 
	C163.738403,388.560852 164.194992,386.892365 164.163666,384.291107 
	C164.051483,374.980774 164.118484,365.668304 164.117859,356.356628 
	C164.117630,352.950806 164.117813,349.544952 164.117813,346.153748 
	C161.220337,346.153748 159.126297,346.153748 156.377563,346.153748 
	C156.377563,354.684143 156.392929,362.943939 156.372391,371.203674 
	C156.357651,377.124237 152.329529,381.579987 146.887970,381.757019 
	C142.120438,381.912140 140.124512,379.015961 140.095108,371.735718 
	C140.060959,363.278625 140.087143,354.821350 140.087143,346.240479 
	C137.267136,346.240479 134.882141,346.240479 132.839584,346.240479 
	C132.839584,357.552643 132.110382,368.545349 133.060577,379.390930 
	C133.883102,388.779510 143.489304,392.833923 151.898102,388.356506 
	C153.186874,387.670349 154.378830,386.802338 154.862167,386.495972 
	C156.989548,387.161774 158.450623,387.619080 160.672318,388.075958 
M121.073059,357.655701 
	C120.151100,352.284149 125.305878,355.172882 126.853577,353.563782 
	C126.853577,350.914795 126.853577,348.519867 126.853577,346.192200 
	C124.720139,345.883484 122.986610,345.632629 120.897842,345.330383 
	C120.897842,342.095154 120.897842,339.168213 120.897842,336.241180 
	C118.249847,336.241180 116.019852,336.241180 114.015373,336.241180 
	C111.962677,339.844635 116.403481,345.985748 109.057922,346.382202 
	C109.057922,348.970428 109.057922,351.250397 109.057922,353.530396 
	C109.588737,353.360413 110.119545,353.190430 110.650360,353.020477 
	C111.545975,354.928192 113.119843,356.802734 113.215172,358.749664 
	C113.556053,365.712036 113.197266,372.706757 113.473251,379.674622 
	C113.846649,389.101501 118.887001,392.195374 127.805222,388.784912 
	C127.805222,386.524933 127.805222,384.264923 127.805222,381.597015 
	C121.943878,382.895813 121.002510,379.520935 121.058609,375.076843 
	C121.127800,369.594818 121.073021,364.111237 121.073059,357.655701 
M295.473419,367.499542 
	C295.506226,371.655090 295.381622,375.819122 295.604095,379.964478 
	C296.089691,389.013306 300.931549,391.976959 309.868652,388.780121 
	C309.868652,386.554443 309.868652,384.302002 309.868652,382.049561 
	C309.550140,382.321503 309.231598,382.593445 308.913086,382.865387 
	C307.081665,381.412720 303.772339,380.058990 303.667328,378.490723 
	C303.129974,370.467468 303.418823,362.388916 303.418823,354.310669 
	C305.567383,354.079041 307.192719,353.903809 309.022491,353.706543 
	C309.022491,351.153473 309.022491,348.755371 309.022491,346.317017 
	C306.962219,346.015778 305.223022,345.761505 303.040100,345.442352 
	C303.040100,342.256775 303.040100,339.339325 303.040100,336.359100 
	C300.338104,336.359100 298.141815,336.359100 296.108734,336.359100 
	C294.219910,340.065247 298.387390,346.122681 291.160217,346.590637 
	C291.160217,349.011719 291.160217,351.133514 291.160217,353.621613 
	C295.069153,353.519287 295.865814,355.724335 295.523621,359.029877 
	C295.268188,361.497040 295.473541,364.011871 295.473419,367.499542 
M470.667816,371.495972 
	C470.667816,376.912506 470.667816,382.329041 470.667816,387.781982 
	C473.674133,387.781982 475.910370,387.781982 478.185791,387.781982 
	C478.185791,368.318451 478.185791,349.196381 478.185791,330.255554 
	C475.456726,330.255554 473.234497,330.255554 470.668213,330.255554 
	C470.668213,343.954590 470.668213,357.225922 470.667816,371.495972 
z"/>
<path fill="#FDCE05" opacity="1.000000" stroke="none" 
	d="
M176.767334,306.003815 
	C157.124573,304.569275 138.759369,300.271881 122.271049,289.926392 
	C99.884735,275.880249 88.937332,255.260101 88.046272,229.082901 
	C87.704453,219.041306 87.789848,219.038437 97.858841,219.038422 
	C107.525398,219.038391 117.191963,219.041061 126.858521,219.037384 
	C136.005402,219.033905 136.126266,219.022507 136.750275,227.947861 
	C137.551163,239.403137 143.348465,247.815125 152.898788,253.433151 
	C157.842911,256.341583 163.438644,258.613373 169.032532,259.857880 
	C185.892197,263.608704 202.777802,263.762634 219.122345,257.222168 
	C222.595322,255.832397 226.003281,253.689392 228.729889,251.134338 
	C237.433487,242.978424 236.047287,230.169724 225.121323,225.617615 
	C214.001694,220.984863 202.196243,217.691315 190.417404,215.016647 
	C170.622589,210.521744 150.477676,207.413864 131.818771,198.905396 
	C117.163712,192.222702 104.792969,182.986710 98.966835,167.169296 
	C90.057014,142.979980 98.274757,116.713951 119.438385,100.991997 
	C132.328583,91.416176 146.937180,85.978432 162.665649,83.940323 
	C188.313919,80.616798 213.608215,81.804932 237.503845,93.038040 
	C256.836090,102.125938 270.832245,116.222885 275.999023,137.493134 
	C277.671783,144.379471 277.852661,151.660553 278.269012,158.787186 
	C278.336456,159.941406 276.083221,162.277756 274.870270,162.300018 
	C261.208527,162.550491 247.538071,162.569229 233.877579,162.284424 
	C232.440155,162.254471 230.790207,160.069870 229.734512,158.542358 
	C229.062500,157.569977 229.251587,155.969421 229.146759,154.643250 
	C228.195847,142.611557 222.334808,134.260178 210.656647,130.587189 
	C192.962692,125.022171 175.174301,125.053238 157.674698,131.175720 
	C150.941681,133.531357 145.153046,137.525482 144.879730,146.041367 
	C144.739700,150.404053 146.218582,153.834564 150.162781,155.329636 
	C157.749252,158.205292 165.403183,161.101456 173.267227,163.006104 
	C191.051651,167.313416 209.099976,170.560837 226.812302,175.126450 
	C240.243332,178.588516 252.854706,184.300034 263.707550,193.358124 
	C289.271301,214.694336 289.176025,253.928848 268.144958,277.106140 
	C251.929291,294.976593 230.897049,302.999237 207.606354,305.536224 
	C197.580856,306.628296 187.359055,305.918396 176.767334,306.003815 
z"/>
<path fill="#1E99FE" opacity="1.000000" stroke="none" 
	d="
M258.000916,85.326157 
	C314.812866,85.326180 371.125244,85.403145 427.436615,85.197708 
	C432.664673,85.178635 433.902679,86.705482 433.740112,91.662094 
	C433.379852,102.646118 433.411377,113.656433 433.730988,124.642998 
	C433.867371,129.332230 432.670135,130.936493 427.709442,130.867706 
	C407.554260,130.588303 387.392914,130.753128 367.233856,130.754105 
	C365.431274,130.754181 363.628693,130.754105 361.316223,130.754105 
	C361.316223,188.141418 361.316223,245.045593 361.316223,302.391357 
	C344.444305,302.391357 328.085114,302.391357 310.879181,302.391357 
	C310.879181,245.435730 310.879181,188.549210 310.879181,130.755768 
	C302.986877,130.755768 295.875793,130.390594 288.823181,130.875443 
	C283.521088,131.239929 281.064728,129.485474 279.097717,124.423203 
	C272.695343,107.946266 260.286987,96.897842 244.882950,88.908783 
	C243.162796,88.016655 241.411041,87.185425 239.794220,85.325844 
	C245.696518,85.325844 251.598801,85.325844 258.000916,85.326157 
z"/>
<path fill="#138A37" opacity="1.000000" stroke="none" 
	d="
M66.670059,369.810059 
	C68.022667,370.894165 69.429832,371.811249 69.925812,373.083527 
	C73.252434,381.617035 87.309250,384.912872 93.950966,378.607513 
	C98.334198,374.446289 97.163200,367.583038 91.245529,365.266266 
	C85.537170,363.031403 79.469208,361.733795 73.666740,359.715332 
	C67.908768,357.712402 63.993153,353.882690 63.560402,347.421600 
	C63.451126,345.790070 63.603874,344.086639 63.957821,342.487457 
	C65.923721,333.605164 75.364075,328.513367 86.600433,330.188721 
	C97.227325,331.773254 103.311134,338.277893 102.741951,347.795319 
	C99.019463,348.355255 96.001030,349.110931 94.119110,343.843658 
	C91.698753,337.069305 77.324425,335.970428 72.935509,341.725006 
	C70.347549,345.118256 71.199730,349.521667 75.164993,351.364349 
	C77.848221,352.611267 80.842987,353.197144 83.711761,354.032806 
	C86.901260,354.961945 90.196236,355.602997 93.286217,356.785217 
	C100.986465,359.731415 104.489098,364.703247 104.496277,372.163300 
	C104.503357,379.521606 100.410812,385.492889 93.365021,388.404724 
	C80.694252,393.641144 65.734406,387.635834 62.502342,375.952850 
	C62.027153,374.235138 61.981167,372.398682 61.669273,370.126862 
	C63.473862,370.002411 64.888474,369.904877 66.670059,369.810059 
z"/>
<path fill="#138A36" opacity="1.000000" stroke="none" 
	d="
M247.705811,365.110352 
	C248.285919,369.061981 246.785660,370.175110 243.281265,370.072510 
	C235.523819,369.845367 227.755127,370.001831 219.722824,370.001831 
	C219.860245,375.673737 221.754318,379.580414 226.607285,381.071869 
	C231.103256,382.453644 235.159470,381.994171 238.586548,377.630707 
	C239.956909,375.885864 243.643097,375.959900 246.560944,375.124115 
	C246.399002,382.454407 242.915543,386.993683 236.752823,389.001831 
	C225.393494,392.703308 214.583389,387.148834 212.202728,375.427124 
	C211.084610,369.921997 211.315033,363.781677 212.482910,358.256561 
	C214.322266,349.554718 221.636703,344.587708 230.001755,344.890076 
	C238.720947,345.205231 245.112289,350.765869 246.981873,359.731049 
	C247.320969,361.357178 247.450424,363.026978 247.705811,365.110352 
M238.255905,358.572693 
	C234.995682,353.691254 231.388535,351.991577 226.634354,353.384766 
	C222.679977,354.543518 220.175980,357.027893 219.977600,361.964844 
	C225.730560,361.964844 231.166534,362.062714 236.589905,361.845825 
	C237.299103,361.817474 237.943649,360.173096 238.255905,358.572693 
z"/>
<path fill="#108834" opacity="1.000000" stroke="none" 
	d="
M201.160950,387.981140 
	C198.941315,387.542450 197.154831,387.100311 194.996933,386.566254 
	C185.360046,393.236603 175.196060,389.927765 171.561737,378.297913 
	C169.164169,370.625641 169.239731,362.858490 172.381363,355.368530 
	C176.287369,346.056183 184.100021,342.855286 193.542007,346.436127 
	C194.283356,346.717285 195.065964,346.889679 196.453278,347.294830 
	C196.453278,343.455933 196.453247,340.004578 196.453293,336.553192 
	C196.453384,329.690247 196.453400,329.690247 203.672531,330.219757 
	C203.810944,331.379669 204.087006,332.626160 204.089218,333.873138 
	C204.118759,350.495453 204.171127,367.118439 204.001572,383.739105 
	C203.987061,385.160004 202.432983,386.565216 201.160950,387.981140 
M183.596817,381.130402 
	C190.969299,382.970306 196.506226,378.808289 196.572037,371.353821 
	C196.601303,368.038177 196.345688,364.702026 196.631287,361.410950 
	C197.035492,356.753235 194.273438,354.860413 190.534424,353.636627 
	C186.692551,352.379089 183.301254,352.941284 180.801346,356.394653 
	C176.298187,362.615295 177.424500,375.367798 183.596817,381.130402 
z"/>
<path fill="#138B37" opacity="1.000000" stroke="none" 
	d="
M462.908875,375.836914 
	C459.468048,385.936066 453.271942,390.613800 444.508911,390.033386 
	C435.675598,389.448303 429.466736,384.073334 428.020508,374.133636 
	C427.230133,368.701599 427.546570,362.764160 428.896179,357.443268 
	C431.097351,348.765015 438.389404,344.277344 446.974884,344.904785 
	C455.215240,345.506958 461.687592,350.976227 462.959717,359.580353 
	C463.725189,364.757874 463.052856,370.147980 462.908875,375.836914 
M455.214935,372.407013 
	C454.774658,367.704712 455.207306,362.662781 453.560516,358.429840 
	C452.601654,355.965210 448.307556,353.424622 445.520142,353.431335 
	C442.734314,353.438019 438.547455,355.982819 437.495239,358.477936 
	C435.796997,362.504974 435.383759,367.484680 435.845062,371.914459 
	C436.521759,378.412384 440.145996,381.594360 445.133179,381.853180 
	C449.888245,382.099945 452.858154,379.525604 455.214935,372.407013 
z"/>
<path fill="#138B37" opacity="1.000000" stroke="none" 
	d="
M389.759277,380.142120 
	C386.485229,372.634399 386.276398,365.272095 388.476074,357.876587 
	C390.958588,349.529938 397.495056,344.758972 405.848175,344.879547 
	C414.232941,345.000580 421.076263,349.858856 422.606964,358.447174 
	C423.655609,364.330688 423.527161,370.722198 422.442566,376.613708 
	C421.023651,384.321198 415.711121,389.107147 407.597534,389.864288 
	C399.743896,390.597198 393.622314,387.745789 389.759277,380.142120 
M397.786743,377.575592 
	C400.181458,381.164429 403.547241,382.446808 407.696747,381.556030 
	C411.975616,380.637451 414.490295,377.488342 414.865662,373.558624 
	C415.311768,368.888306 415.108032,363.999725 414.195038,359.402496 
	C413.385651,355.327118 409.984467,353.122437 405.677948,353.082825 
	C401.403778,353.043488 398.434204,355.176483 396.817505,359.112091 
	C394.348175,365.123138 394.522034,371.073669 397.786743,377.575592 
z"/>
<path fill="#168B3A" opacity="1.000000" stroke="none" 
	d="
M358.250946,382.672058 
	C358.250702,367.755859 358.250702,353.300812 358.250702,338.232025 
	C352.406250,338.232025 347.016815,338.232025 341.387939,338.232025 
	C341.387939,335.193481 341.387939,332.773041 341.387939,329.859314 
	C354.789642,329.859314 367.914032,329.773529 381.031464,330.036591 
	C381.989960,330.055817 383.620636,332.598450 383.626617,333.973602 
	C383.632660,335.358765 382.195496,337.719391 381.048553,337.949860 
	C378.167572,338.528717 375.066620,338.401031 372.103180,338.088776 
	C367.802368,337.635559 366.301178,339.035675 366.404236,343.561768 
	C366.699799,356.540710 366.506287,369.530792 366.505066,382.516479 
	C366.504913,384.148102 366.505066,385.779694 366.505066,387.300568 
	C359.109650,388.979034 358.476318,388.630920 358.250946,382.672058 
z"/>
<path fill="#108934" opacity="1.000000" stroke="none" 
	d="
M253.588470,385.400757 
	C253.578232,372.167603 253.578232,359.374451 253.578232,345.561401 
	C257.017242,346.158356 259.765869,346.635498 262.514496,347.112610 
	C262.467651,347.572632 262.420837,348.032654 262.373993,348.492676 
	C263.816895,347.688751 265.210052,346.774231 266.710938,346.099213 
	C275.123505,342.315765 284.376221,346.959625 284.954071,356.004303 
	C285.619690,366.423126 285.108673,376.917114 285.108673,387.680664 
	C282.641235,387.680664 280.400421,387.680664 277.570251,387.680664 
	C277.570251,382.338593 277.581573,377.212341 277.566406,372.086151 
	C277.555573,368.422821 277.663605,364.750305 277.443970,361.098419 
	C277.079559,355.039307 275.219940,352.916687 270.849762,353.110474 
	C265.995300,353.325684 261.414215,357.620972 261.374359,362.208130 
	C261.300934,370.656494 261.353394,379.105957 261.353394,389.190430 
	C258.049042,387.763092 255.823883,386.801941 253.588470,385.400757 
z"/>
<path fill="#148838" opacity="1.000000" stroke="none" 
	d="
M160.292007,388.076172 
	C158.450623,387.619080 156.989548,387.161774 154.862167,386.495972 
	C154.378830,386.802338 153.186874,387.670349 151.898102,388.356506 
	C143.489304,392.833923 133.883102,388.779510 133.060577,379.390930 
	C132.110382,368.545349 132.839584,357.552643 132.839584,346.240479 
	C134.882141,346.240479 137.267136,346.240479 140.087143,346.240479 
	C140.087143,354.821350 140.060959,363.278625 140.095108,371.735718 
	C140.124512,379.015961 142.120438,381.912140 146.887970,381.757019 
	C152.329529,381.579987 156.357651,377.124237 156.372391,371.203674 
	C156.392929,362.943939 156.377563,354.684143 156.377563,346.153748 
	C159.126297,346.153748 161.220337,346.153748 164.117813,346.153748 
	C164.117813,349.544952 164.117630,352.950806 164.117859,356.356628 
	C164.118484,365.668304 164.051483,374.980774 164.163666,384.291107 
	C164.194992,386.892365 163.738403,388.560852 160.292007,388.076172 
z"/>
<path fill="#138A37" opacity="1.000000" stroke="none" 
	d="
M121.072433,358.142029 
	C121.073021,364.111237 121.127800,369.594818 121.058609,375.076843 
	C121.002510,379.520935 121.943878,382.895813 127.805222,381.597015 
	C127.805222,384.264923 127.805222,386.524933 127.807648,388.786469 
	C118.887001,392.195374 113.846649,389.101501 113.473251,379.674622 
	C113.197266,372.706757 113.556053,365.712036 113.215172,358.749664 
	C113.119843,356.802734 111.545975,354.928192 110.650360,353.020477 
	C110.119545,353.190430 109.588737,353.360413 109.057922,353.530396 
	C109.057922,351.250397 109.057922,348.970428 109.057922,346.382202 
	C116.403481,345.985748 111.962677,339.844635 114.015373,336.241180 
	C116.019852,336.241180 118.249847,336.241180 120.897842,336.241180 
	C120.897842,339.168213 120.897842,342.095154 120.897842,345.330383 
	C122.986610,345.632629 124.720139,345.883484 126.853577,346.192200 
	C126.853577,348.519867 126.853577,350.914795 126.853577,353.563782 
	C125.305878,355.172882 120.151100,352.284149 121.072433,358.142029 
z"/>
<path fill="#0F8733" opacity="1.000000" stroke="none" 
	d="
M295.473572,367.002502 
	C295.473541,364.011871 295.268188,361.497040 295.523621,359.029877 
	C295.865814,355.724335 295.069153,353.519287 291.160217,353.621613 
	C291.160217,351.133514 291.160217,349.011719 291.160217,346.590637 
	C298.387390,346.122681 294.219910,340.065247 296.108734,336.359100 
	C298.141815,336.359100 300.338104,336.359100 303.040100,336.359100 
	C303.040100,339.339325 303.040100,342.256775 303.040100,345.442352 
	C305.223022,345.761505 306.962219,346.015778 309.022491,346.317017 
	C309.022491,348.755371 309.022491,351.153473 309.022491,353.706543 
	C307.192719,353.903809 305.567383,354.079041 303.418823,354.310669 
	C303.418823,362.388916 303.129974,370.467468 303.667328,378.490723 
	C303.772339,380.058990 307.081665,381.412720 308.913086,382.865387 
	C309.231598,382.593445 309.550140,382.321503 309.868652,382.049561 
	C309.868652,384.302002 309.868652,386.554443 309.868652,388.780121 
	C300.931549,391.976959 296.089691,389.013306 295.604095,379.964478 
	C295.381622,375.819122 295.506226,371.655090 295.473572,367.002502 
z"/>
<path fill="#1C8F3F" opacity="1.000000" stroke="none" 
	d="
M470.668030,370.996613 
	C470.668213,357.225922 470.668213,343.954590 470.668213,330.255554 
	C473.234497,330.255554 475.456726,330.255554 478.185791,330.255554 
	C478.185791,349.196381 478.185791,368.318451 478.185791,387.781982 
	C475.910370,387.781982 473.674133,387.781982 470.667816,387.781982 
	C470.667816,382.329041 470.667816,376.912506 470.668030,370.996613 
z"/>
<path fill="#E2F7E9" opacity="1.000000" stroke="none" 
	d="
M238.437027,358.924957 
	C237.943649,360.173096 237.299103,361.817474 236.589905,361.845825 
	C231.166534,362.062714 225.730560,361.964844 219.977600,361.964844 
	C220.175980,357.027893 222.679977,354.543518 226.634354,353.384766 
	C231.388535,351.991577 234.995682,353.691254 238.437027,358.924957 
z"/>
<path fill="#F0FAF3" opacity="1.000000" stroke="none" 
	d="
M183.257324,380.952118 
	C177.424500,375.367798 176.298187,362.615295 180.801346,356.394653 
	C183.301254,352.941284 186.692551,352.379089 190.534424,353.636627 
	C194.273438,354.860413 197.035492,356.753235 196.631287,361.410950 
	C196.345688,364.702026 196.601303,368.038177 196.572037,371.353821 
	C196.506226,378.808289 190.969299,382.970306 183.257324,380.952118 
z"/>
<path fill="#F1FBF4" opacity="1.000000" stroke="none" 
	d="
M455.159637,372.808563 
	C452.858154,379.525604 449.888245,382.099945 445.133179,381.853180 
	C440.145996,381.594360 436.521759,378.412384 435.845062,371.914459 
	C435.383759,367.484680 435.796997,362.504974 437.495239,358.477936 
	C438.547455,355.982819 442.734314,353.438019 445.520142,353.431335 
	C448.307556,353.424622 452.601654,355.965210 453.560516,358.429840 
	C455.207306,362.662781 454.774658,367.704712 455.159637,372.808563 
z"/>
<path fill="#F2FBF4" opacity="1.000000" stroke="none" 
	d="
M397.581360,377.252319 
	C394.522034,371.073669 394.348175,365.123138 396.817505,359.112091 
	C398.434204,355.176483 401.403778,353.043488 405.677948,353.082825 
	C409.984467,353.122437 413.385651,355.327118 414.195038,359.402496 
	C415.108032,363.999725 415.311768,368.888306 414.865662,373.558624 
	C414.490295,377.488342 411.975616,380.637451 407.696747,381.556030 
	C403.547241,382.446808 400.181458,381.164429 397.581360,377.252319 
z"/>
</svg>